<svg version="1.1" id="Layer_1" xmlns="http://www.w3.org/2000/svg" xmlns:xlink="http://www.w3.org/1999/xlink" x="0px" y="0px"
	 width="100%" viewBox="0 0 1200 1200" enable-background="new 0 0 1200 1200" xml:space="preserve">
<path fill="#EFECE6" opacity="1.000000" stroke="none" 
	d="
M675.000000,1201.000000 
	C450.000000,1201.000000 225.500000,1201.000000 1.000000,1201.000000 
	C1.000000,801.000000 1.000000,401.000000 1.000000,1.000000 
	C401.000000,1.000000 801.000000,1.000000 1201.000000,1.000000 
	C1201.000000,401.000000 1201.000000,801.000000 1201.000000,1201.000000 
	C1025.833374,1201.000000 850.666687,1201.000000 675.000000,1201.000000 
M342.500000,267.833099 
	C318.835052,267.833130 295.170105,267.825836 271.505157,267.836304 
	C260.293884,267.841278 256.460541,271.636047 256.459961,282.830017 
	C256.451843,445.489258 256.451416,608.148499 256.464447,770.807739 
	C256.465363,782.025452 260.323944,785.844971 271.431183,785.845032 
	C491.088043,785.845276 710.744873,785.845215 930.401733,785.844971 
	C931.734985,785.844971 933.072083,785.906860 934.400879,785.828979 
	C939.890625,785.507324 944.183838,781.803955 945.066040,776.365601 
	C945.463196,773.917419 945.461914,771.387451 945.462158,768.894592 
	C945.479004,607.735107 945.478699,446.575653 945.465454,285.416199 
	C945.465271,282.921478 945.467407,280.403564 945.152954,277.936707 
	C944.424683,272.224182 940.233521,268.344086 934.470703,267.916840 
	C932.480591,267.769348 930.473328,267.835785 928.473877,267.835785 
	C733.482605,267.832916 538.491272,267.833069 342.500000,267.833099 
M828.321289,935.989868 
	C836.701660,935.901978 842.860352,931.817017 847.118774,924.313110 
	C847.457764,924.607727 847.796753,924.902405 848.135803,925.197083 
	C848.285156,928.397156 848.434570,931.597229 848.581360,934.742004 
	C853.985962,934.742004 858.921509,934.742004 863.948364,934.742004 
	C863.948364,905.441223 863.948364,876.405457 863.948364,847.208374 
	C858.736328,847.208374 853.813416,847.208374 848.358398,847.208374 
	C848.358398,853.035156 848.358398,858.654785 848.358398,864.274353 
	C848.358398,869.798523 848.358398,875.322632 848.358398,881.438110 
	C844.027588,878.355652 840.923584,875.164062 837.146423,873.634521 
	C823.491333,868.104980 807.668762,875.116760 801.964661,888.825623 
	C798.938965,896.097351 798.685913,903.678284 799.787048,911.392395 
	C801.996765,926.872681 811.826904,935.663940 828.321289,935.989868 
M263.034332,860.509033 
	C263.034332,885.236877 263.034332,909.964661 263.034332,934.732910 
	C268.876465,934.732910 274.117950,934.732910 279.879974,934.732910 
	C279.879974,923.760864 279.879974,913.048828 279.879974,901.954102 
	C286.860626,901.954102 293.330139,902.173279 299.779816,901.909058 
	C313.726959,901.337585 323.348572,891.460999 324.539612,876.811768 
	C325.763062,861.763672 317.988739,849.456970 303.976227,847.940613 
	C290.575836,846.490417 276.895416,847.627686 263.034332,847.627686 
	C263.034332,851.578003 263.034332,855.545410 263.034332,860.509033 
M646.692139,911.695801 
	C651.073242,930.695862 667.694824,939.814758 688.955322,934.882080 
	C703.570251,931.491211 713.290894,916.160400 709.851074,901.905884 
	C704.639587,901.905884 699.428162,901.905884 694.263184,901.905884 
	C693.947327,904.564148 693.807190,906.890259 693.376343,909.161194 
	C691.915161,916.863892 687.547485,920.542603 679.601990,920.916992 
	C671.081909,921.318604 664.102905,917.582214 663.489014,910.069702 
	C662.480164,897.724548 662.465027,885.185974 663.411377,872.834717 
	C663.994019,865.229858 671.206177,860.839600 679.035950,861.075928 
	C686.926758,861.314087 691.734741,865.485229 693.390625,873.653076 
	C693.815857,875.750610 693.975952,877.901917 694.274292,880.152222 
	C699.615234,880.152222 704.868347,880.152222 710.080811,880.152222 
	C712.392273,863.675354 702.758545,849.962097 686.927917,846.865845 
	C667.247986,843.016724 650.252014,851.601501 647.424255,869.175659 
	C645.235840,882.776123 646.649719,896.956299 646.692139,911.695801 
M475.576324,874.956055 
	C474.835785,874.304382 474.116882,873.119995 473.351105,873.088867 
	C468.922333,872.908875 464.482513,873.001038 460.022675,873.001038 
	C459.761932,875.257385 459.559967,877.005432 459.315399,879.121948 
	C458.234894,878.715088 457.395721,878.616333 456.852936,878.162903 
	C444.285706,867.662964 425.950989,870.604309 418.002808,884.932983 
	C411.260864,897.087097 411.202576,909.879333 417.641632,922.184204 
	C419.627106,925.978394 423.083099,929.452332 426.674377,931.873535 
	C437.979675,939.495483 449.946289,936.937439 458.215759,925.818970 
	C458.599854,925.302490 459.593628,925.239502 460.328674,924.955627 
	C463.007446,934.678467 466.353821,936.225159 481.070862,934.651062 
	C481.070862,929.904541 481.070862,925.135315 481.070862,919.982239 
	C476.083710,920.671875 475.543518,917.633911 475.567352,913.837708 
	C475.646790,901.185974 475.595123,888.533508 475.576324,874.956055 
M898.487061,934.142761 
	C914.460022,939.529480 933.488159,933.030151 936.605530,921.122864 
	C932.341187,918.740845 928.036926,916.336487 923.811157,913.976013 
	C918.281250,920.528564 911.773682,922.453430 904.402588,919.974182 
	C898.783569,918.084351 895.619568,914.073547 895.209717,907.851685 
	C910.303772,907.851685 925.371704,907.851685 940.537415,907.851685 
	C941.730164,894.311523 938.626648,883.172058 926.573425,876.148804 
	C911.048401,867.102722 889.811096,872.914062 881.930420,888.224182 
	C873.064148,905.449036 880.263733,926.305115 898.487061,934.142761 
M765.789185,873.532959 
	C738.501709,867.053833 717.729553,885.944519 723.499329,911.992432 
	C726.846130,927.101746 740.031982,936.543213 756.991394,935.973877 
	C773.025024,935.435608 784.991699,925.092407 787.468506,909.631409 
	C790.136780,892.975342 782.202332,879.391235 765.789185,873.532959 
M548.003723,924.602966 
	C547.926941,923.157715 547.850159,921.712463 547.756592,919.950439 
	C542.482544,919.950439 537.490784,920.214905 532.556030,919.800659 
	C530.926514,919.663879 528.143433,917.825806 528.099304,916.680237 
	C527.735962,907.263184 527.894165,897.825928 527.894165,887.996704 
	C535.525330,887.996704 542.624084,887.996704 549.930542,887.996704 
	C549.930542,882.862122 549.930542,878.138489 549.930542,872.864563 
	C542.455750,872.864563 535.218933,872.864563 527.664062,872.864563 
	C527.664062,864.035400 527.664062,855.754333 527.664062,847.309387 
	C522.266113,847.309387 517.215820,847.309387 511.665894,847.309387 
	C511.665894,856.019592 511.665894,864.425354 511.665894,873.291748 
	C505.256348,873.291748 499.346283,873.291748 493.478027,873.291748 
	C493.478027,878.382446 493.478027,882.983643 493.478027,888.074219 
	C499.638611,888.074219 505.554626,888.074219 511.902588,888.074219 
	C511.902588,890.189819 511.902222,891.814392 511.902679,893.438965 
	C511.905579,903.938416 511.843842,914.438538 511.937988,924.937134 
	C511.987793,930.488098 514.939758,934.575317 519.846313,934.777405 
	C529.104492,935.158630 538.389526,934.887512 548.003723,934.887512 
	C548.003723,931.503296 548.003723,928.536438 548.003723,924.602966 
M366.714020,882.061646 
	C365.873535,881.442627 364.411774,880.912292 364.308441,880.187988 
	C363.990601,877.960632 364.192627,875.659180 364.192627,873.348450 
	C355.121857,873.348450 346.577820,873.348450 338.254578,873.348450 
	C338.254578,878.439819 338.254578,883.171814 338.254578,888.317688 
	C342.055115,888.317688 345.468994,888.317688 348.823242,888.317688 
	C348.823242,899.011841 348.823242,909.267700 348.823242,920.113892 
	C344.546478,920.113892 340.494507,920.113892 336.437256,920.113892 
	C336.437256,925.306519 336.437256,929.901123 336.437256,934.747070 
	C350.729004,934.747070 364.784027,934.747070 379.058289,934.747070 
	C379.058289,929.827759 379.058289,925.110718 379.058289,919.808350 
	C374.261597,919.808350 369.715302,919.808350 365.007935,919.808350 
	C365.007935,913.239502 365.005096,907.256165 365.011261,901.272827 
	C365.012115,900.441101 365.018585,899.606140 365.087921,898.778137 
	C365.746674,890.911316 370.576019,886.452454 377.696075,887.120483 
	C383.537018,887.668518 385.733551,890.277710 387.574921,899.129089 
	C392.600952,898.659973 397.668976,898.186951 402.652771,897.721741 
	C404.557220,886.034546 399.871338,876.595642 390.747955,873.295654 
	C381.042511,869.785156 372.190765,872.782776 366.714020,882.061646 
M610.533752,898.500061 
	C610.533752,890.077148 610.533752,881.654297 610.533752,873.342896 
	C598.287048,873.342896 586.728394,873.342896 575.344666,873.342896 
	C575.344666,878.426575 575.344666,883.158752 575.344666,888.335083 
	C581.934570,888.335083 588.166748,888.335083 594.383789,888.335083 
	C594.383789,899.046082 594.383789,909.292480 594.383789,920.009888 
	C587.361023,920.009888 580.613464,920.009888 573.717651,920.009888 
	C573.717651,925.228882 573.717651,929.969727 573.717651,934.761108 
	C592.096802,934.761108 610.171387,934.761108 628.455322,934.761108 
	C628.455322,929.794312 628.455322,925.071045 628.455322,919.869629 
	C622.418701,919.869629 616.666260,919.869629 610.533508,919.869629 
	C610.533508,912.763672 610.533508,906.131836 610.533752,898.500061 
M614.223816,852.880432 
	C612.697144,844.901733 606.135620,840.376343 599.178223,842.503662 
	C593.144592,844.348511 589.745483,849.779053 590.738953,855.986572 
	C591.705505,862.026184 597.056824,866.341675 603.116943,865.968689 
	C609.573364,865.571228 613.627869,861.091675 614.223816,852.880432 
z"/>
<path fill="#483174" opacity="1.000000" stroke="none" 
	d="
M343.000000,267.833069 
	C538.491272,267.833069 733.482605,267.832916 928.473877,267.835785 
	C930.473328,267.835785 932.480591,267.769348 934.470703,267.916840 
	C940.233521,268.344086 944.424683,272.224182 945.152954,277.936707 
	C945.467407,280.403564 945.465271,282.921478 945.465454,285.416199 
	C945.478699,446.575653 945.479004,607.735107 945.462158,768.894592 
	C945.461914,771.387451 945.463196,773.917419 945.066040,776.365601 
	C944.183838,781.803955 939.890625,785.507324 934.400879,785.828979 
	C933.072083,785.906860 931.734985,785.844971 930.401733,785.844971 
	C710.744873,785.845215 491.088043,785.845276 271.431183,785.845032 
	C260.323944,785.844971 256.465363,782.025452 256.464447,770.807739 
	C256.451416,608.148499 256.451843,445.489258 256.459961,282.830017 
	C256.460541,271.636047 260.293884,267.841278 271.505157,267.836304 
	C295.170105,267.825836 318.835052,267.833130 343.000000,267.833069 
M807.500122,373.551300 
	C766.750183,373.551300 726.000305,373.551300 685.092163,373.551300 
	C685.092163,509.129272 685.092163,644.017029 685.092163,779.448486 
	C687.144836,779.448486 688.927795,779.448486 690.710815,779.448486 
	C770.526672,779.448486 850.342590,779.449341 930.158447,779.447327 
	C938.290527,779.447083 939.063965,778.684875 939.064087,770.628052 
	C939.066650,640.156616 939.065857,509.685150 939.065918,379.213684 
	C939.065918,377.436035 939.065979,375.658356 939.065979,373.550964 
	C895.112366,373.550964 851.806213,373.550964 807.500122,373.551300 
M302.500000,274.163177 
	C291.669891,274.163330 280.839783,274.169403 270.009674,274.160156 
	C266.568787,274.157227 263.157715,274.936920 263.068207,278.935059 
	C262.793488,291.201660 262.968201,303.478302 262.968201,315.922119 
	C488.505676,315.922119 713.519714,315.922119 939.043457,315.922119 
	C939.043457,305.243958 939.044373,294.794678 939.043152,284.345428 
	C939.042053,274.925903 938.275696,274.163239 928.813354,274.163239 
	C720.375549,274.163116 511.937775,274.163208 302.500000,274.163177 
M866.499878,356.560120 
	C872.666077,356.559998 878.838928,356.385529 884.996277,356.618866 
	C889.367371,356.784485 891.622314,355.546326 891.091919,350.700745 
	C890.749451,347.571777 891.028870,344.374878 891.027344,341.208405 
	C891.023804,333.837433 891.023254,333.833160 883.627136,333.833130 
	C712.471802,333.832306 541.316467,333.832245 370.161133,333.833405 
	C362.932037,333.833466 362.931366,333.839417 362.925140,340.817047 
	C362.922882,343.316895 362.924438,345.816711 362.924683,348.316559 
	C362.925537,356.555023 362.925629,356.559509 371.032593,356.559540 
	C535.855042,356.560303 700.677429,356.559937 866.499878,356.560120 
M522.496765,548.591309 
	C528.084961,548.591309 533.673096,548.591309 539.345276,548.591309 
	C539.345276,544.996277 539.345276,542.229614 539.345276,539.222839 
	C467.726746,539.222839 396.375458,539.222839 324.892120,539.222839 
	C324.892120,542.362488 324.892120,545.258728 324.892120,548.590942 
	C390.660889,548.590942 456.079346,548.590942 522.496765,548.591309 
M392.500092,682.408691 
	C369.942200,682.408691 347.384277,682.408691 324.807190,682.408691 
	C324.807190,686.063721 324.807190,688.842407 324.807190,691.740784 
	C396.427185,691.740784 467.780487,691.740784 539.209229,691.740784 
	C539.209229,688.570679 539.209229,685.693420 539.209229,682.409058 
	C490.371399,682.409058 441.935760,682.409058 392.500092,682.408691 
M295.741730,698.410706 
	C294.276459,698.489563 292.811157,698.568420 291.218567,698.654114 
	C291.218567,701.863525 291.218567,704.760803 291.218567,707.773010 
	C362.883636,707.773010 434.254120,707.773010 505.761292,707.773010 
	C505.761292,704.630920 505.761292,701.742798 505.761292,698.410950 
	C435.871704,698.410950 366.283020,698.410950 295.741730,698.410706 
M426.499908,564.589478 
	C452.916168,564.589478 479.332397,564.589478 505.699402,564.589478 
	C505.699402,560.995300 505.699402,558.101685 505.699402,555.281616 
	C433.971039,555.281616 362.606812,555.281616 291.302368,555.281616 
	C291.302368,558.477112 291.302368,561.360718 291.302368,564.589111 
	C336.283264,564.589111 380.891571,564.589111 426.499908,564.589478 
M365.500000,570.979065 
	C352.031342,570.979065 338.562714,570.979065 324.833862,570.979065 
	C324.833862,574.240967 324.833862,577.141724 324.833862,580.264526 
	C385.340607,580.264526 445.542297,580.264526 505.732422,580.264526 
	C505.732422,577.034241 505.732422,574.134521 505.732422,570.979065 
	C459.086273,570.979065 412.793152,570.979065 365.500000,570.979065 
M436.500000,724.020935 
	C459.595093,724.020935 482.690186,724.020935 505.695740,724.020935 
	C505.695740,720.510132 505.695740,717.626160 505.695740,714.696899 
	C445.244995,714.696899 385.179260,714.696899 324.820557,714.696899 
	C324.820557,717.885437 324.820557,720.787415 324.820557,724.020935 
	C361.908569,724.020935 398.704285,724.020935 436.500000,724.020935 
M439.500092,746.410522 
	C401.277344,746.410522 363.054596,746.410522 324.822083,746.410522 
	C324.822083,750.080139 324.822083,752.859680 324.822083,755.736694 
	C375.985168,755.736694 426.878357,755.736694 477.772888,755.736694 
	C477.772888,752.559631 477.772888,749.675537 477.772888,746.410889 
	C465.109375,746.410889 452.804749,746.410889 439.500092,746.410522 
M351.500000,522.979065 
	C342.695770,522.979065 333.891571,522.979065 324.837097,522.979065 
	C324.837097,526.248474 324.837097,529.149597 324.837097,532.255859 
	C376.021576,532.255859 426.897369,532.255859 477.766174,532.255859 
	C477.766174,529.021545 477.766174,526.126892 477.766174,522.979065 
	C435.768219,522.979065 394.134125,522.979065 351.500000,522.979065 
M462.497131,666.845825 
	C416.726898,666.845825 370.956635,666.845825 324.923157,666.845825 
	C324.923157,670.090210 324.923157,672.813110 324.923157,675.681152 
	C376.064178,675.681152 426.941895,675.681152 477.759857,675.681152 
	C477.759857,672.621399 477.759857,669.884583 477.759857,666.845764 
	C472.779541,666.845764 468.137756,666.845764 462.497131,666.845825 
M414.403992,596.591309 
	C417.019897,596.591309 419.635773,596.591309 422.401276,596.591309 
	C422.401276,593.069824 422.401276,590.184082 422.401276,587.241028 
	C378.480835,587.241028 334.905731,587.241028 291.245850,587.241028 
	C291.245850,590.398438 291.245850,593.285522 291.245850,596.590942 
	C332.187317,596.590942 372.807587,596.590942 414.403992,596.591309 
M316.500000,612.154175 
	C344.611053,612.154175 372.722076,612.154175 401.048401,612.154175 
	C401.048401,608.851746 401.048401,606.114441 401.048401,603.211548 
	C364.261658,603.211548 327.732117,603.211548 291.268494,603.211548 
	C291.268494,606.332397 291.268494,609.080566 291.268494,612.154236 
	C299.555817,612.154236 307.527893,612.154236 316.500000,612.154175 
M384.500000,517.022400 
	C397.089172,517.022400 409.678345,517.022400 422.402893,517.022400 
	C422.402893,513.600342 422.402893,510.728577 422.402893,507.730408 
	C389.710876,507.730408 357.375854,507.730408 324.839905,507.730408 
	C324.839905,510.955963 324.839905,513.855103 324.839905,517.022400 
	C344.603943,517.022400 364.051971,517.022400 384.500000,517.022400 
M328.008911,660.591125 
	C359.408081,660.591125 390.807281,660.591125 422.427551,660.591125 
	C422.427551,657.115540 422.427551,654.233582 422.427551,651.223755 
	C389.737579,651.223755 357.371277,651.223755 324.371948,651.223755 
	C325.946838,654.452759 321.532562,658.681030 328.008911,660.591125 
M290.934418,429.688324 
	C290.934418,431.951416 290.934418,434.214539 290.934418,436.431061 
	C321.239868,436.431061 350.897095,436.431061 380.523254,436.431061 
	C380.523254,433.218689 380.523254,430.451080 380.523254,427.670227 
	C379.811371,427.449371 379.353149,427.183197 378.894653,427.182709 
	C350.606598,427.152985 322.318451,427.127838 294.030609,427.203674 
	C293.008942,427.206421 291.989960,428.222382 290.934418,429.688324 
M326.630066,730.869751 
	C325.770294,733.740967 324.910553,736.612122 323.975647,739.734375 
	C357.759125,739.734375 390.086212,739.734375 422.316040,739.734375 
	C422.316040,736.576538 422.316040,733.853088 422.316040,730.847473 
	C390.486694,730.847473 359.049103,730.847473 326.630066,730.869751 
M353.377289,421.020966 
	C354.832550,420.946442 356.287811,420.871887 357.826233,420.793121 
	C357.826233,417.610199 357.826233,414.727722 357.826233,411.703247 
	C335.431824,411.703247 313.367096,411.703247 291.242554,411.703247 
	C291.242554,414.902039 291.242554,417.804382 291.242554,421.020966 
	C311.839355,421.020966 332.118835,421.020966 353.377289,421.020966 
M336.499878,468.865784 
	C343.605621,468.865784 350.711395,468.865784 357.796051,468.865784 
	C357.796051,465.293762 357.796051,462.396332 357.796051,459.463776 
	C335.374969,459.463776 313.317963,459.463776 291.275452,459.463776 
	C291.275452,462.702881 291.275452,465.607025 291.275452,468.865723 
	C306.245880,468.865723 320.872925,468.865723 336.499878,468.865784 
M312.500122,452.865784 
	C327.597931,452.865784 342.695740,452.865784 357.803284,452.865784 
	C357.803284,449.310577 357.803284,446.409698 357.803284,443.458038 
	C335.389526,443.458038 313.332489,443.458038 291.268341,443.458038 
	C291.268341,446.695251 291.268341,449.596802 291.268341,452.865723 
	C298.234161,452.865723 304.867188,452.865723 312.500122,452.865784 
M344.289825,618.872925 
	C326.589844,618.872925 308.889862,618.872925 291.271301,618.872925 
	C291.271301,622.341919 291.271301,625.083618 291.271301,627.864380 
	C309.613495,627.864380 327.638702,627.864380 346.385773,627.864380 
	C345.973450,624.675903 345.606812,621.840698 344.289825,618.872925 
M316.499542,491.134216 
	C308.078735,491.134216 299.657928,491.134216 291.274353,491.134216 
	C291.274353,494.707367 291.274353,497.608521 291.274353,500.532501 
	C306.325684,500.532501 321.029236,500.532501 335.708710,500.532501 
	C335.708710,497.292389 335.708710,494.390869 335.708710,491.134277 
	C329.414703,491.134277 323.456970,491.134277 316.499542,491.134216 
M317.499542,644.154175 
	C323.571747,644.154175 329.643951,644.154175 335.757385,644.154175 
	C335.757385,640.754272 335.757385,638.014771 335.757385,635.262085 
	C320.691101,635.262085 305.894623,635.262085 291.305664,635.262085 
	C291.305664,638.424927 291.305664,641.166199 291.305664,644.154236 
	C299.938660,644.154236 308.219147,644.154236 317.499542,644.154175 
M484.641998,752.405579 
	C484.757599,753.527405 484.873199,754.649231 484.983459,755.719238 
	C493.927612,755.719238 502.634338,755.719238 511.401306,755.719238 
	C511.401306,752.545593 511.401306,749.685120 511.401306,746.781616 
	C502.352264,746.781616 493.682892,746.781616 484.641937,746.781616 
	C484.641937,748.619446 484.641937,750.085083 484.641998,752.405579 
M521.597473,714.407532 
	C518.681885,714.407532 515.766296,714.407532 512.775391,714.407532 
	C512.775391,718.013000 512.775391,720.786499 512.775391,723.749573 
	C521.750122,723.749573 530.473328,723.749573 539.326416,723.749573 
	C539.326416,720.591614 539.326416,717.715332 539.326416,714.407898 
	C533.499512,714.407898 528.035767,714.407898 521.597473,714.407532 
M349.265656,344.616760 
	C349.456909,344.047516 349.977295,343.142181 349.790344,342.959076 
	C346.634583,339.868042 343.390747,336.866882 340.048615,333.735413 
	C336.255768,337.292908 332.892059,340.447937 330.825897,342.385895 
	C331.603363,347.366760 332.182159,351.074860 332.757080,354.758179 
	C334.478027,354.758179 336.187744,354.758179 337.868530,354.758179 
	C338.163147,349.319489 338.163147,349.319489 341.859039,349.510742 
	C341.956329,351.240601 342.055237,352.999725 342.160248,354.866516 
	C344.217072,354.866516 345.933258,354.866516 347.665314,354.866516 
	C347.975983,351.331665 348.261292,348.085693 349.265656,344.616760 
M301.536987,548.591309 
	C306.941528,548.591309 312.346100,548.591309 317.714172,548.591309 
	C317.714172,544.956177 317.714172,542.188232 317.714172,539.266724 
	C308.727386,539.266724 300.000153,539.266724 291.282715,539.266724 
	C291.282715,542.451721 291.282715,545.334778 291.282715,548.590942 
	C294.607483,548.590942 297.581909,548.590942 301.536987,548.591309 
M567.382935,538.979065 
	C560.326477,538.979065 553.270020,538.979065 546.351257,538.979065 
	C546.351257,542.517395 546.351257,545.391541 546.351257,548.213013 
	C555.404968,548.213013 564.080933,548.213013 572.837097,548.213013 
	C572.837097,545.067383 572.837097,542.299255 572.837097,539.226562 
	C571.234070,539.138123 569.793457,539.058594 567.382935,538.979065 
M546.024048,683.894897 
	C546.024048,686.489258 546.024048,689.083618 546.024048,691.750854 
	C555.250671,691.750854 563.947083,691.750854 572.718140,691.750854 
	C572.718140,688.593506 572.718140,685.715149 572.718140,683.028381 
	C563.705261,683.028381 554.998779,683.028381 546.024048,683.894897 
M312.372528,724.021851 
	C314.141296,724.021851 315.910095,724.021851 317.794373,724.021851 
	C317.794373,720.593445 317.794373,717.807861 317.794373,714.715698 
	C308.867371,714.715698 300.122192,714.715698 291.218262,714.715698 
	C291.218262,717.855408 291.218262,720.754578 291.218262,724.021851 
	C298.136292,724.021851 304.769806,724.021851 312.372528,724.021851 
M305.492950,692.021851 
	C309.583618,692.021851 313.674316,692.021851 317.738403,692.021851 
	C317.738403,688.514221 317.738403,685.735962 317.738403,682.708740 
	C308.762207,682.708740 300.020538,682.708740 291.253082,682.708740 
	C291.253082,685.917725 291.253082,688.822510 291.253082,692.021851 
	C295.884796,692.021851 300.191895,692.021851 305.492950,692.021851 
M313.336487,570.978210 
	C305.913635,570.978210 298.490784,570.978210 291.175812,570.978210 
	C291.175812,574.520386 291.175812,577.303528 291.175812,580.260986 
	C300.172821,580.260986 308.914551,580.260986 317.971222,580.260986 
	C317.971222,578.112854 317.800507,576.274109 318.009674,574.479614 
	C318.357788,571.492859 316.996094,570.589783 313.336487,570.978210 
M295.741882,507.408783 
	C294.276337,507.487976 292.810791,507.567200 291.223572,507.652985 
	C291.223572,510.865997 291.223572,513.764404 291.223572,516.681396 
	C300.251862,516.681396 308.980164,516.681396 317.765045,516.681396 
	C317.765045,513.557129 317.765045,510.774933 317.765045,507.409088 
	C310.613464,507.409088 303.653900,507.409088 295.741882,507.408783 
M298.609009,395.408722 
	C296.159973,395.408722 293.710938,395.408722 291.274719,395.408722 
	C291.274719,398.957184 291.274719,401.856750 291.274719,404.640533 
	C300.354187,404.640533 309.083862,404.640533 317.719238,404.640533 
	C317.719238,401.478790 317.719238,398.701355 317.719238,395.409058 
	C311.506042,395.409058 305.542511,395.409058 298.609009,395.408722 
M313.336487,650.978210 
	C305.912903,650.978210 298.489288,650.978210 291.173462,650.978210 
	C291.173462,654.516113 291.173462,657.300354 291.173462,660.261475 
	C300.170654,660.261475 308.913300,660.261475 317.971222,660.261475 
	C317.971222,658.113586 317.800476,656.274719 318.009644,654.480103 
	C318.357788,651.493530 316.996674,650.589539 313.336487,650.978210 
M312.372406,756.021851 
	C314.141113,756.021851 315.909851,756.021851 317.795013,756.021851 
	C317.795013,752.592651 317.795013,749.807129 317.795013,746.715332 
	C308.867950,746.715332 300.122589,746.715332 291.218201,746.715332 
	C291.218201,749.855286 291.218201,752.754456 291.218201,756.021851 
	C298.136169,756.021851 304.769714,756.021851 312.372406,756.021851 
M291.899994,484.727570 
	C300.461456,484.727570 309.022888,484.727570 317.658783,484.727570 
	C317.658783,481.339600 317.658783,478.450806 317.658783,475.454163 
	C308.652924,475.454163 299.964050,475.454163 291.185181,475.454163 
	C291.185181,478.561920 291.185181,481.348938 291.899994,484.727570 
M308.460754,522.978149 
	C302.692963,522.978149 296.925140,522.978149 291.122314,522.978149 
	C291.122314,526.430420 291.122314,529.221375 291.122314,532.301147 
	C300.058136,532.301147 308.799591,532.301147 317.662354,532.301147 
	C317.662354,529.117065 317.662354,526.221619 317.662354,522.978149 
	C314.719910,522.978149 312.083160,522.978149 308.460754,522.978149 
M317.924866,668.684875 
	C317.310791,668.081604 316.704041,666.961975 316.081543,666.953186 
	C307.824341,666.836121 299.564941,666.875122 291.202759,666.875122 
	C291.202759,670.203003 291.202759,672.946960 291.202759,675.836975 
	C300.165527,675.836975 308.871368,675.836975 317.942871,675.836975 
	C317.942871,673.555786 317.942871,671.590393 317.924866,668.684875 
M296.594849,730.843018 
	C294.830109,730.843018 293.065369,730.843018 291.214600,730.843018 
	C291.214600,734.220032 291.214600,736.963440 291.214600,739.836304 
	C300.182770,739.836304 308.887054,739.836304 317.682190,739.836304 
	C317.682190,736.769653 317.682190,734.028687 317.682190,730.842957 
	C310.802399,730.842957 304.187378,730.842957 296.594849,730.843018 
M455.915802,739.317932 
	C455.915802,736.569580 455.915802,733.821228 455.915802,730.843018 
	C451.021851,730.843018 446.711548,730.843018 442.401245,730.843018 
	C437.999664,730.843018 433.598053,730.843018 429.442108,730.843018 
	C429.442108,734.460266 429.442108,737.200500 429.442108,739.996033 
	C438.291870,739.996033 446.763367,739.996033 455.915802,739.317932 
M905.424683,349.773193 
	C911.282654,356.741669 918.098083,356.991547 923.366272,350.317413 
	C921.918823,347.453217 920.415527,347.899017 917.997009,349.608246 
	C915.330627,351.492645 911.743225,351.473816 910.146118,348.371857 
	C909.077393,346.296021 908.992188,342.770966 910.075500,340.761719 
	C911.526733,338.070068 914.711792,337.382507 917.785095,339.277771 
	C917.362000,340.231781 917.011841,341.021210 916.559265,342.041748 
	C919.337585,342.927063 921.819885,343.718048 924.676270,344.628235 
	C924.676270,341.522400 924.676270,338.937439 924.676270,335.305573 
	C919.490540,335.305573 914.153503,334.199982 909.579041,335.595093 
	C904.272034,337.213531 903.072754,342.803619 905.424683,349.773193 
M287.039459,339.824921 
	C285.954681,338.800751 284.869934,337.776550 283.558533,336.538422 
	C280.529633,339.176178 277.338074,341.955627 273.833496,345.007660 
	C277.549866,348.223206 280.844330,351.073700 284.529785,354.262482 
	C285.218079,347.276520 290.510498,351.732117 293.160278,349.482391 
	C293.160278,346.549103 293.160278,343.355194 293.160278,339.831207 
	C291.151337,339.831207 289.513489,339.831207 287.039459,339.824921 
M316.536743,339.869415 
	C315.298523,338.821411 314.060272,337.773438 312.822052,336.725433 
	C312.847687,337.190613 312.873322,337.655792 312.898956,338.120941 
	C309.681763,338.972076 306.464569,339.823181 303.241394,340.675873 
	C303.241394,343.657349 303.241394,346.737946 303.241394,349.693085 
	C306.474518,351.243134 311.348541,347.719147 312.431732,353.743561 
	C315.891968,350.794067 319.003784,348.141602 322.498901,345.162384 
	C320.482880,343.351135 318.795288,341.834961 316.536743,339.869415 
M281.300903,452.879883 
	C288.165924,451.428986 282.741669,446.558167 284.678986,443.564453 
	C281.376373,443.564453 278.858551,443.564453 275.417053,443.564453 
	C277.953400,446.856049 272.249390,453.060516 281.300903,452.879883 
M284.515228,477.848358 
	C283.252777,472.294647 279.290253,476.403290 276.561157,475.143768 
	C276.561157,478.661926 276.561157,481.651947 276.561157,484.700867 
	C279.288635,484.700867 281.574463,484.700867 284.517944,484.700867 
	C284.517944,482.587463 284.517944,480.649323 284.515228,477.848358 
M283.035767,507.172058 
	C280.810913,507.172058 278.586060,507.172058 276.539246,507.172058 
	C276.539246,510.873962 276.539246,513.755005 276.539246,516.510376 
	C279.358978,516.510376 281.741669,516.510376 284.723175,516.510376 
	C284.405243,513.218323 284.126068,510.327209 283.035767,507.172058 
M278.688812,491.126556 
	C273.486969,493.372345 277.311066,497.366302 276.163177,500.567200 
	C279.262329,500.567200 281.652618,500.567200 284.222198,500.567200 
	C284.222198,497.350708 284.222198,494.450562 284.222198,491.120178 
	C282.475555,491.120178 281.021484,491.120178 278.688812,491.126556 
M284.324738,460.165039 
	C281.768585,459.730957 279.212433,459.296875 276.456909,458.828949 
	C276.456909,462.701141 276.456909,465.582458 276.456909,468.610046 
	C279.189026,468.610046 281.583618,468.610046 284.482056,468.610046 
	C284.482056,465.905090 284.482056,463.455231 284.324738,460.165039 
M276.125244,418.325653 
	C277.296722,423.836975 281.393494,419.689148 284.096863,421.173828 
	C284.096863,417.684265 284.096863,414.692352 284.096863,411.737976 
	C281.282196,411.737976 278.891693,411.737976 276.121735,411.737976 
	C276.121735,413.865082 276.121735,415.644623 276.125244,418.325653 
M282.061768,427.401520 
	C280.165833,427.401520 278.269897,427.401520 276.441101,427.401520 
	C276.441101,430.969360 276.441101,433.702911 276.441101,436.639099 
	C279.153351,436.639099 281.544617,436.639099 285.138000,436.639099 
	C284.314850,433.268158 283.605804,430.364380 282.061768,427.401520 
M277.055206,714.646301 
	C276.642334,717.582031 276.229462,720.517761 275.783051,723.692261 
	C279.139648,723.692261 281.640656,723.692261 284.128418,723.692261 
	C284.128418,720.474182 284.128418,717.612183 284.128418,714.440369 
	C281.789337,714.440369 279.834778,714.440369 277.055206,714.646301 
M278.707886,746.396912 
	C273.439148,748.583496 277.366302,752.620605 276.107666,755.776367 
	C279.235474,755.776367 281.636902,755.776367 284.194305,755.776367 
	C284.194305,752.644226 284.194305,749.772034 284.194305,746.633484 
	C282.445496,746.541382 281.000916,746.465271 278.707886,746.396912 
M280.428772,740.032166 
	C285.063812,739.671631 285.658600,738.018921 283.737762,730.702759 
	C281.365875,730.702759 278.976807,730.702759 276.124420,730.702759 
	C276.124420,733.108643 275.732208,735.314087 276.273773,737.259583 
	C276.590637,738.397888 278.397461,739.121460 280.428772,740.032166 
M276.122040,561.233276 
	C277.028076,567.655334 281.260101,563.568604 284.134735,564.375305 
	C284.134735,560.910400 284.134735,558.058899 284.134735,555.254150 
	C281.352234,555.254150 278.954834,555.254150 276.121063,555.254150 
	C276.121063,557.140808 276.121063,558.746704 276.122040,561.233276 
M278.644470,708.027100 
	C280.420563,708.027100 282.196625,708.027100 284.238464,708.027100 
	C284.238464,704.755188 284.238464,701.882385 284.238464,698.762085 
	C281.453979,698.762085 278.950531,698.762085 275.331207,698.762085 
	C276.239594,702.236938 276.992401,705.116638 278.644470,708.027100 
M276.125244,689.325684 
	C277.296814,694.836914 281.393463,690.689209 284.096863,692.173706 
	C284.096863,688.684753 284.096863,685.692444 284.096863,682.737976 
	C281.282227,682.737976 278.891724,682.737976 276.121735,682.737976 
	C276.121735,684.859619 276.121735,686.641907 276.125244,689.325684 
M284.512299,399.694519 
	C284.122253,394.839935 282.837860,394.294708 276.350769,396.251495 
	C276.350769,398.990265 276.350769,401.735901 276.350769,404.725098 
	C279.086823,404.725098 281.591095,404.725098 284.507263,404.725098 
	C284.507263,403.130463 284.507263,401.839935 284.512299,399.694519 
M284.377930,524.016235 
	C281.822083,523.570557 279.266266,523.124878 276.410492,522.626953 
	C276.410492,526.357300 276.410492,529.214600 276.410492,532.169678 
	C279.201813,532.169678 281.692627,532.169678 284.490723,532.169678 
	C284.490723,529.443237 284.490723,527.157043 284.377930,524.016235 
M277.746399,539.003601 
	C277.037872,541.985229 276.329315,544.966858 275.538727,548.293823 
	C279.210175,548.293823 281.584747,548.293823 284.235443,548.293823 
	C284.235443,545.103333 284.235443,542.230408 284.235443,538.973022 
	C282.200623,538.973022 280.421906,538.973022 277.746399,539.003601 
M276.125092,589.680054 
	C276.125092,591.778259 276.125092,593.876465 276.125092,596.232544 
	C279.078125,596.232544 281.573181,596.232544 284.189636,596.232544 
	C284.189636,592.981079 284.189636,590.114380 284.189636,586.025818 
	C281.084229,587.090454 278.615540,587.936768 276.125092,589.680054 
M281.312714,570.968323 
	C279.720978,571.045349 278.129242,571.122375 276.433899,571.204346 
	C276.433899,574.406616 276.433899,577.261108 276.433899,580.333618 
	C279.127625,580.333618 281.507050,580.333618 284.467224,580.333618 
	C283.275238,577.036621 287.265961,573.160217 281.312714,570.968323 
M276.157959,669.681702 
	C276.157959,671.752869 276.157959,673.824036 276.157959,675.804504 
	C279.323944,675.804504 281.714081,675.804504 284.164734,675.804504 
	C284.164734,672.689148 284.164734,669.944580 284.164734,665.844482 
	C281.062225,666.979675 278.619598,667.873474 276.157959,669.681702 
M284.442505,652.873352 
	C281.940613,651.975098 279.438690,651.076904 276.456360,650.006226 
	C276.456360,654.287109 276.456360,657.021118 276.456360,659.900879 
	C279.168457,659.900879 281.577423,659.900879 284.459290,659.900879 
	C284.459290,657.675842 284.459290,655.713379 284.442505,652.873352 
M283.901337,643.778687 
	C284.099396,640.915283 284.297485,638.051880 284.496857,635.169556 
	C281.347595,635.169556 278.946167,635.169556 276.439636,635.169556 
	C276.439636,638.246399 276.439636,640.981018 276.439636,644.101990 
	C278.841309,644.101990 280.962189,644.101990 283.901337,643.778687 
M284.459717,621.745056 
	C283.206970,615.647705 279.178223,620.126831 276.494446,619.054871 
	C276.494446,622.386780 276.494446,625.120789 276.494446,627.846069 
	C279.241486,627.846069 281.645050,627.846069 284.457916,627.846069 
	C284.457916,625.892700 284.457916,624.257446 284.459717,621.745056 
M284.456238,607.488953 
	C284.376160,606.047180 284.296051,604.605408 284.214600,603.138794 
	C281.417908,603.138794 279.009735,603.138794 276.416626,603.138794 
	C276.416626,606.181519 276.416626,608.915710 276.416626,612.265442 
	C279.382568,610.822083 284.433655,615.557861 284.456238,607.488953 
z"/>
<path fill="#372656" opacity="1.000000" stroke="none" 
	d="
M827.869385,935.996826 
	C811.826904,935.663940 801.996765,926.872681 799.787048,911.392395 
	C798.685913,903.678284 798.938965,896.097351 801.964661,888.825623 
	C807.668762,875.116760 823.491333,868.104980 837.146423,873.634521 
	C840.923584,875.164062 844.027588,878.355652 848.358398,881.438110 
	C848.358398,875.322632 848.358398,869.798523 848.358398,864.274353 
	C848.358398,858.654785 848.358398,853.035156 848.358398,847.208374 
	C853.813416,847.208374 858.736328,847.208374 863.948364,847.208374 
	C863.948364,876.405457 863.948364,905.441223 863.948364,934.742004 
	C858.921509,934.742004 853.985962,934.742004 848.581360,934.742004 
	C848.434570,931.597229 848.285156,928.397156 848.135803,925.197083 
	C847.796753,924.902405 847.457764,924.607727 847.118774,924.313110 
	C842.860352,931.817017 836.701660,935.901978 827.869385,935.996826 
M817.496643,894.247559 
	C814.815857,899.174805 814.438232,904.359009 815.863892,909.706604 
	C817.729858,916.705750 823.624878,920.883667 831.615295,920.944946 
	C839.412292,921.004700 845.769043,916.694519 847.722229,910.023499 
	C850.263123,901.345032 847.275452,892.778687 840.424561,889.099304 
	C832.856018,885.034485 823.996277,886.818787 817.496643,894.247559 
z"/>
<path fill="#362556" opacity="1.000000" stroke="none" 
	d="
M263.034332,860.010925 
	C263.034332,855.545410 263.034332,851.578003 263.034332,847.627686 
	C276.895416,847.627686 290.575836,846.490417 303.976227,847.940613 
	C317.988739,849.456970 325.763062,861.763672 324.539612,876.811768 
	C323.348572,891.460999 313.726959,901.337585 299.779816,901.909058 
	C293.330139,902.173279 286.860626,901.954102 279.879974,901.954102 
	C279.879974,913.048828 279.879974,923.760864 279.879974,934.732910 
	C274.117950,934.732910 268.876465,934.732910 263.034332,934.732910 
	C263.034332,909.964661 263.034332,885.236877 263.034332,860.010925 
M301.147797,863.933777 
	C294.112396,863.507202 287.076996,863.080566 279.997070,862.651245 
	C279.997070,870.940918 279.997070,878.210388 279.997070,885.389160 
	C280.474060,885.634216 280.757111,885.904907 281.042847,885.907715 
	C285.865875,885.955627 290.690125,886.039124 295.512268,885.975342 
	C302.068481,885.888672 305.983826,883.296326 307.477661,878.226257 
	C309.163452,872.504700 307.317993,867.845398 301.147797,863.933777 
z"/>
<path fill="#362556" opacity="1.000000" stroke="none" 
	d="
M646.577148,911.287231 
	C646.649719,896.956299 645.235840,882.776123 647.424255,869.175659 
	C650.252014,851.601501 667.247986,843.016724 686.927917,846.865845 
	C702.758545,849.962097 712.392273,863.675354 710.080811,880.152222 
	C704.868347,880.152222 699.615234,880.152222 694.274292,880.152222 
	C693.975952,877.901917 693.815857,875.750610 693.390625,873.653076 
	C691.734741,865.485229 686.926758,861.314087 679.035950,861.075928 
	C671.206177,860.839600 663.994019,865.229858 663.411377,872.834717 
	C662.465027,885.185974 662.480164,897.724548 663.489014,910.069702 
	C664.102905,917.582214 671.081909,921.318604 679.601990,920.916992 
	C687.547485,920.542603 691.915161,916.863892 693.376343,909.161194 
	C693.807190,906.890259 693.947327,904.564148 694.263184,901.905884 
	C699.428162,901.905884 704.639587,901.905884 709.853516,901.912354 
	C713.290894,916.160400 703.570251,931.491211 688.955322,934.882080 
	C667.694824,939.814758 651.073242,930.695862 646.577148,911.287231 
z"/>
<path fill="#372757" opacity="1.000000" stroke="none" 
	d="
M475.585022,875.418701 
	C475.595123,888.533508 475.646790,901.185974 475.567352,913.837708 
	C475.543518,917.633911 476.083710,920.671875 481.070862,919.982239 
	C481.070862,925.135315 481.070862,929.904541 481.070862,934.651062 
	C466.353821,936.225159 463.007446,934.678467 460.328674,924.955627 
	C459.593628,925.239502 458.599854,925.302490 458.215759,925.818970 
	C449.946289,936.937439 437.979675,939.495483 426.674377,931.873535 
	C423.083099,929.452332 419.627106,925.978394 417.641632,922.184204 
	C411.202576,909.879333 411.260864,897.087097 418.002808,884.932983 
	C425.950989,870.604309 444.285706,867.662964 456.852936,878.162903 
	C457.395721,878.616333 458.234894,878.715088 459.315399,879.121948 
	C459.559967,877.005432 459.761932,875.257385 460.022675,873.001038 
	C464.482513,873.001038 468.922333,872.908875 473.351105,873.088867 
	C474.116882,873.119995 474.835785,874.304382 475.585022,875.418701 
M451.536591,919.390198 
	C458.780029,914.829102 461.296661,907.683044 459.024414,898.128357 
	C457.608826,892.175903 453.092041,888.103394 446.886597,887.184448 
	C440.301270,886.209229 434.109711,889.067566 431.184265,894.433777 
	C427.845978,900.557190 428.401581,910.769287 432.657501,915.709045 
	C437.634644,921.485779 443.986816,921.971252 451.536591,919.390198 
z"/>
<path fill="#362556" opacity="1.000000" stroke="none" 
	d="
M898.102173,934.049561 
	C880.263733,926.305115 873.064148,905.449036 881.930420,888.224182 
	C889.811096,872.914062 911.048401,867.102722 926.573425,876.148804 
	C938.626648,883.172058 941.730164,894.311523 940.537415,907.851685 
	C925.371704,907.851685 910.303772,907.851685 895.209717,907.851685 
	C895.619568,914.073547 898.783569,918.084351 904.402588,919.974182 
	C911.773682,922.453430 918.281250,920.528564 923.811157,913.976013 
	C928.036926,916.336487 932.341187,918.740845 936.605530,921.122864 
	C933.488159,933.030151 914.460022,939.529480 898.102173,934.049561 
M922.944702,890.897827 
	C914.122498,883.091919 899.582031,884.596619 895.766785,894.001648 
	C904.482971,894.001648 913.078674,893.989990 921.674438,894.010986 
	C923.497620,894.015442 924.832642,893.793640 922.944702,890.897827 
z"/>
<path fill="#372656" opacity="1.000000" stroke="none" 
	d="
M766.167358,873.671692 
	C782.202332,879.391235 790.136780,892.975342 787.468506,909.631409 
	C784.991699,925.092407 773.025024,935.435608 756.991394,935.973877 
	C740.031982,936.543213 726.846130,927.101746 723.499329,911.992432 
	C717.729553,885.944519 738.501709,867.053833 766.167358,873.671692 
M770.621765,911.746338 
	C773.875427,901.188171 771.190735,892.743652 763.372314,888.943604 
	C754.798218,884.776245 744.536804,887.691528 740.414307,895.466064 
	C736.274109,903.273987 738.932617,914.211548 746.003540,918.461060 
	C754.401306,923.507996 764.770996,920.912415 770.621765,911.746338 
z"/>
<path fill="#362555" opacity="1.000000" stroke="none" 
	d="
M548.003723,925.086304 
	C548.003723,928.536438 548.003723,931.503296 548.003723,934.887512 
	C538.389526,934.887512 529.104492,935.158630 519.846313,934.777405 
	C514.939758,934.575317 511.987793,930.488098 511.937988,924.937134 
	C511.843842,914.438538 511.905579,903.938416 511.902679,893.438965 
	C511.902222,891.814392 511.902588,890.189819 511.902588,888.074219 
	C505.554626,888.074219 499.638611,888.074219 493.478027,888.074219 
	C493.478027,882.983643 493.478027,878.382446 493.478027,873.291748 
	C499.346283,873.291748 505.256348,873.291748 511.665894,873.291748 
	C511.665894,864.425354 511.665894,856.019592 511.665894,847.309387 
	C517.215820,847.309387 522.266113,847.309387 527.664062,847.309387 
	C527.664062,855.754333 527.664062,864.035400 527.664062,872.864563 
	C535.218933,872.864563 542.455750,872.864563 549.930542,872.864563 
	C549.930542,878.138489 549.930542,882.862122 549.930542,887.996704 
	C542.624084,887.996704 535.525330,887.996704 527.894165,887.996704 
	C527.894165,897.825928 527.735962,907.263184 528.099304,916.680237 
	C528.143433,917.825806 530.926514,919.663879 532.556030,919.800659 
	C537.490784,920.214905 542.482544,919.950439 547.756592,919.950439 
	C547.850159,921.712463 547.926941,923.157715 548.003723,925.086304 
z"/>
<path fill="#362555" opacity="1.000000" stroke="none" 
	d="
M366.903717,881.683960 
	C372.190765,872.782776 381.042511,869.785156 390.747955,873.295654 
	C399.871338,876.595642 404.557220,886.034546 402.652771,897.721741 
	C397.668976,898.186951 392.600952,898.659973 387.574921,899.129089 
	C385.733551,890.277710 383.537018,887.668518 377.696075,887.120483 
	C370.576019,886.452454 365.746674,890.911316 365.087921,898.778137 
	C365.018585,899.606140 365.012115,900.441101 365.011261,901.272827 
	C365.005096,907.256165 365.007935,913.239502 365.007935,919.808350 
	C369.715302,919.808350 374.261597,919.808350 379.058289,919.808350 
	C379.058289,925.110718 379.058289,929.827759 379.058289,934.747070 
	C364.784027,934.747070 350.729004,934.747070 336.437256,934.747070 
	C336.437256,929.901123 336.437256,925.306519 336.437256,920.113892 
	C340.494507,920.113892 344.546478,920.113892 348.823242,920.113892 
	C348.823242,909.267700 348.823242,899.011841 348.823242,888.317688 
	C345.468994,888.317688 342.055115,888.317688 338.254578,888.317688 
	C338.254578,883.171814 338.254578,878.439819 338.254578,873.348450 
	C346.577820,873.348450 355.121857,873.348450 364.192627,873.348450 
	C364.192627,875.659180 363.990601,877.960632 364.308441,880.187988 
	C364.411774,880.912292 365.873535,881.442627 366.903717,881.683960 
z"/>
<path fill="#352455" opacity="1.000000" stroke="none" 
	d="
M610.533630,899.000000 
	C610.533508,906.131836 610.533508,912.763672 610.533508,919.869629 
	C616.666260,919.869629 622.418701,919.869629 628.455322,919.869629 
	C628.455322,925.071045 628.455322,929.794312 628.455322,934.761108 
	C610.171387,934.761108 592.096802,934.761108 573.717651,934.761108 
	C573.717651,929.969727 573.717651,925.228882 573.717651,920.009888 
	C580.613464,920.009888 587.361023,920.009888 594.383789,920.009888 
	C594.383789,909.292480 594.383789,899.046082 594.383789,888.335083 
	C588.166748,888.335083 581.934570,888.335083 575.344666,888.335083 
	C575.344666,883.158752 575.344666,878.426575 575.344666,873.342896 
	C586.728394,873.342896 598.287048,873.342896 610.533752,873.342896 
	C610.533752,881.654297 610.533752,890.077148 610.533630,899.000000 
z"/>
<path fill="#372757" opacity="1.000000" stroke="none" 
	d="
M614.255371,853.254150 
	C613.627869,861.091675 609.573364,865.571228 603.116943,865.968689 
	C597.056824,866.341675 591.705505,862.026184 590.738953,855.986572 
	C589.745483,849.779053 593.144592,844.348511 599.178223,842.503662 
	C606.135620,840.376343 612.697144,844.901733 614.255371,853.254150 
z"/>
<path fill="#EEEBE6" opacity="1.000000" stroke="none" 
	d="
M808.000122,373.551147 
	C851.806213,373.550964 895.112366,373.550964 939.065979,373.550964 
	C939.065979,375.658356 939.065918,377.436035 939.065918,379.213684 
	C939.065857,509.685150 939.066650,640.156616 939.064087,770.628052 
	C939.063965,778.684875 938.290527,779.447083 930.158447,779.447327 
	C850.342590,779.449341 770.526672,779.448486 690.710815,779.448486 
	C688.927795,779.448486 687.144836,779.448486 685.092163,779.448486 
	C685.092163,644.017029 685.092163,509.129272 685.092163,373.551300 
	C726.000305,373.551300 766.750183,373.551300 808.000122,373.551147 
M906.359436,548.500061 
	C906.359436,526.759277 906.359436,505.018494 906.359436,483.294128 
	C844.873413,483.294128 784.144287,483.294128 723.421143,483.294128 
	C723.421143,518.679565 723.421143,553.737915 723.421143,588.746887 
	C784.518494,588.746887 845.267090,588.746887 906.359680,588.746887 
	C906.359680,575.451965 906.359680,562.476074 906.359436,548.500061 
M807.499939,448.652985 
	C840.399170,448.652985 873.298401,448.652985 906.105225,448.652985 
	C906.105225,430.481537 906.105225,413.075256 906.105225,395.718719 
	C844.994934,395.718719 784.236755,395.718719 723.351440,395.718719 
	C723.351440,413.398773 723.351440,430.797119 723.351440,448.652710 
	C751.258179,448.652710 778.879028,448.652710 807.499939,448.652985 
M830.500061,694.343140 
	C794.752869,694.343140 759.005737,694.343140 723.418213,694.343140 
	C723.418213,701.272461 723.418213,707.664856 723.418213,714.131897 
	C784.514709,714.131897 845.253296,714.131897 906.166748,714.131897 
	C906.166748,707.499207 906.166748,701.103271 906.166748,694.343323 
	C881.082397,694.343323 856.291260,694.343323 830.500061,694.343140 
M875.500000,755.930542 
	C885.622070,755.930542 895.744080,755.930542 906.049194,755.930542 
	C906.049194,749.129333 906.049194,742.752991 906.049194,736.213623 
	C845.008911,736.213623 784.283508,736.213623 723.365295,736.213623 
	C723.365295,742.850464 723.365295,749.237000 723.365295,755.930542 
	C773.940308,755.930542 824.220154,755.930542 875.500000,755.930542 
M775.500000,652.926147 
	C758.094666,652.926147 740.689270,652.926147 723.318420,652.926147 
	C723.318420,659.996216 723.318420,666.264282 723.318420,672.608154 
	C784.423279,672.608154 845.276855,672.608154 906.100464,672.608154 
	C906.100464,665.968506 906.100464,659.696899 906.100464,652.926086 
	C862.724426,652.926086 819.612244,652.926086 775.500000,652.926147 
M772.500000,611.210693 
	C756.102905,611.210693 739.705750,611.210693 723.429688,611.210693 
	C723.429688,618.199280 723.429688,624.595398 723.429688,630.947754 
	C754.000000,630.947754 784.202820,630.947754 814.605469,630.947754 
	C814.605469,624.285889 814.605469,617.907654 814.605469,611.210815 
	C800.712585,611.210815 787.106323,611.210815 772.500000,611.210693 
z"/>
<path fill="#EEEBE5" opacity="1.000000" stroke="none" 
	d="
M303.000000,274.163208 
	C511.937775,274.163208 720.375549,274.163116 928.813354,274.163239 
	C938.275696,274.163239 939.042053,274.925903 939.043152,284.345428 
	C939.044373,294.794678 939.043457,305.243958 939.043457,315.922119 
	C713.519714,315.922119 488.505676,315.922119 262.968201,315.922119 
	C262.968201,303.478302 262.793488,291.201660 263.068207,278.935059 
	C263.157715,274.936920 266.568787,274.157227 270.009674,274.160156 
	C280.839783,274.169403 291.669891,274.163330 303.000000,274.163208 
M924.697693,295.391846 
	C924.308838,291.943207 922.843079,288.997772 919.073914,289.101013 
	C916.944824,289.159332 914.241821,290.371277 912.895386,291.981689 
	C910.575378,294.756500 912.056519,299.269043 915.152893,300.862274 
	C919.091187,302.888733 922.581604,301.130737 924.697693,295.391846 
M893.013306,292.475159 
	C891.744873,298.354340 894.798950,302.748077 899.649475,301.375275 
	C901.741455,300.783264 904.335449,298.375366 904.732971,296.396881 
	C905.129150,294.424957 903.654785,291.155914 901.940735,289.885559 
	C898.968079,287.682373 895.675720,288.676697 893.013306,292.475159 
M878.702087,301.628143 
	C883.090881,301.649902 885.690796,299.375214 885.765564,295.101440 
	C885.822510,291.848755 883.899963,289.454590 880.414673,288.981506 
	C876.822510,288.493958 874.120178,289.932281 873.265137,293.532593 
	C872.327271,297.481873 873.861145,300.314484 878.702087,301.628143 
z"/>
<path fill="#EBE8E4" opacity="1.000000" stroke="none" 
	d="
M865.999878,356.559937 
	C700.677429,356.559937 535.855042,356.560303 371.032593,356.559540 
	C362.925629,356.559509 362.925537,356.555023 362.924683,348.316559 
	C362.924438,345.816711 362.922882,343.316895 362.925140,340.817047 
	C362.931366,333.839417 362.932037,333.833466 370.161133,333.833405 
	C541.316467,333.832245 712.471802,333.832306 883.627136,333.833130 
	C891.023254,333.833160 891.023804,333.837433 891.027344,341.208405 
	C891.028870,344.374878 890.749451,347.571777 891.091919,350.700745 
	C891.622314,355.546326 889.367371,356.784485 884.996277,356.618866 
	C878.838928,356.385529 872.666077,356.559998 865.999878,356.559937 
z"/>
<path fill="#E6E2E0" opacity="1.000000" stroke="none" 
	d="
M521.997314,548.591125 
	C456.079346,548.590942 390.660889,548.590942 324.892120,548.590942 
	C324.892120,545.258728 324.892120,542.362488 324.892120,539.222839 
	C396.375458,539.222839 467.726746,539.222839 539.345276,539.222839 
	C539.345276,542.229614 539.345276,544.996277 539.345276,548.591309 
	C533.673096,548.591309 528.084961,548.591309 521.997314,548.591125 
z"/>
<path fill="#E6E2E0" opacity="1.000000" stroke="none" 
	d="
M393.000122,682.408875 
	C441.935760,682.409058 490.371399,682.409058 539.209229,682.409058 
	C539.209229,685.693420 539.209229,688.570679 539.209229,691.740784 
	C467.780487,691.740784 396.427185,691.740784 324.807190,691.740784 
	C324.807190,688.842407 324.807190,686.063721 324.807190,682.408691 
	C347.384277,682.408691 369.942200,682.408691 393.000122,682.408875 
z"/>
<path fill="#E7E3E0" opacity="1.000000" stroke="none" 
	d="
M296.218018,698.410828 
	C366.283020,698.410950 435.871704,698.410950 505.761292,698.410950 
	C505.761292,701.742798 505.761292,704.630920 505.761292,707.773010 
	C434.254120,707.773010 362.883636,707.773010 291.218567,707.773010 
	C291.218567,704.760803 291.218567,701.863525 291.218567,698.654114 
	C292.811157,698.568420 294.276459,698.489563 296.218018,698.410828 
z"/>
<path fill="#E7E3E0" opacity="1.000000" stroke="none" 
	d="
M425.999878,564.589294 
	C380.891571,564.589111 336.283264,564.589111 291.302368,564.589111 
	C291.302368,561.360718 291.302368,558.477112 291.302368,555.281616 
	C362.606812,555.281616 433.971039,555.281616 505.699402,555.281616 
	C505.699402,558.101685 505.699402,560.995300 505.699402,564.589478 
	C479.332397,564.589478 452.916168,564.589478 425.999878,564.589294 
z"/>
<path fill="#E7E3E0" opacity="1.000000" stroke="none" 
	d="
M366.000000,570.979065 
	C412.793152,570.979065 459.086273,570.979065 505.732422,570.979065 
	C505.732422,574.134521 505.732422,577.034241 505.732422,580.264526 
	C445.542297,580.264526 385.340607,580.264526 324.833862,580.264526 
	C324.833862,577.141724 324.833862,574.240967 324.833862,570.979065 
	C338.562714,570.979065 352.031342,570.979065 366.000000,570.979065 
z"/>
<path fill="#E7E3E0" opacity="1.000000" stroke="none" 
	d="
M436.000000,724.020935 
	C398.704285,724.020935 361.908569,724.020935 324.820557,724.020935 
	C324.820557,720.787415 324.820557,717.885437 324.820557,714.696899 
	C385.179260,714.696899 445.244995,714.696899 505.695740,714.696899 
	C505.695740,717.626160 505.695740,720.510132 505.695740,724.020935 
	C482.690186,724.020935 459.595093,724.020935 436.000000,724.020935 
z"/>
<path fill="#E7E3E0" opacity="1.000000" stroke="none" 
	d="
M440.000122,746.410706 
	C452.804749,746.410889 465.109375,746.410889 477.772888,746.410889 
	C477.772888,749.675537 477.772888,752.559631 477.772888,755.736694 
	C426.878357,755.736694 375.985168,755.736694 324.822083,755.736694 
	C324.822083,752.859680 324.822083,750.080139 324.822083,746.410522 
	C363.054596,746.410522 401.277344,746.410522 440.000122,746.410706 
z"/>
<path fill="#E7E3E0" opacity="1.000000" stroke="none" 
	d="
M352.000000,522.979065 
	C394.134125,522.979065 435.768219,522.979065 477.766174,522.979065 
	C477.766174,526.126892 477.766174,529.021545 477.766174,532.255859 
	C426.897369,532.255859 376.021576,532.255859 324.837097,532.255859 
	C324.837097,529.149597 324.837097,526.248474 324.837097,522.979065 
	C333.891571,522.979065 342.695770,522.979065 352.000000,522.979065 
z"/>
<path fill="#EFECE6" opacity="1.000000" stroke="none" 
	d="
M462.996552,666.845825 
	C468.137756,666.845764 472.779541,666.845764 477.759857,666.845764 
	C477.759857,669.884583 477.759857,672.621399 477.759857,675.681152 
	C426.941895,675.681152 376.064178,675.681152 324.923157,675.681152 
	C324.923157,672.813110 324.923157,670.090210 324.923157,666.845825 
	C370.956635,666.845825 416.726898,666.845825 462.996552,666.845825 
z"/>
<path fill="#E6E2E0" opacity="1.000000" stroke="none" 
	d="
M413.915924,596.591125 
	C372.807587,596.590942 332.187317,596.590942 291.245850,596.590942 
	C291.245850,593.285522 291.245850,590.398438 291.245850,587.241028 
	C334.905731,587.241028 378.480835,587.241028 422.401276,587.241028 
	C422.401276,590.184082 422.401276,593.069824 422.401276,596.591309 
	C419.635773,596.591309 417.019897,596.591309 413.915924,596.591125 
z"/>
<path fill="#EFECE6" opacity="1.000000" stroke="none" 
	d="
M316.000000,612.154175 
	C307.527893,612.154236 299.555817,612.154236 291.268494,612.154236 
	C291.268494,609.080566 291.268494,606.332397 291.268494,603.211548 
	C327.732117,603.211548 364.261658,603.211548 401.048401,603.211548 
	C401.048401,606.114441 401.048401,608.851746 401.048401,612.154175 
	C372.722076,612.154175 344.611053,612.154175 316.000000,612.154175 
z"/>
<path fill="#E6E2E0" opacity="1.000000" stroke="none" 
	d="
M384.000000,517.022400 
	C364.051971,517.022400 344.603943,517.022400 324.839905,517.022400 
	C324.839905,513.855103 324.839905,510.955963 324.839905,507.730408 
	C357.375854,507.730408 389.710876,507.730408 422.402893,507.730408 
	C422.402893,510.728577 422.402893,513.600342 422.402893,517.022400 
	C409.678345,517.022400 397.089172,517.022400 384.000000,517.022400 
z"/>
<path fill="#E6E2E0" opacity="1.000000" stroke="none" 
	d="
M327.566772,660.586731 
	C321.532562,658.681030 325.946838,654.452759 324.371948,651.223755 
	C357.371277,651.223755 389.737579,651.223755 422.427551,651.223755 
	C422.427551,654.233582 422.427551,657.115540 422.427551,660.591125 
	C390.807281,660.591125 359.408081,660.591125 327.566772,660.586731 
z"/>
<path fill="#E6E2E0" opacity="1.000000" stroke="none" 
	d="
M290.952087,429.227234 
	C291.989960,428.222382 293.008942,427.206421 294.030609,427.203674 
	C322.318451,427.127838 350.606598,427.152985 378.894653,427.182709 
	C379.353149,427.183197 379.811371,427.449371 380.523254,427.670227 
	C380.523254,430.451080 380.523254,433.218689 380.523254,436.431061 
	C350.897095,436.431061 321.239868,436.431061 290.934418,436.431061 
	C290.934418,434.214539 290.934418,431.951416 290.952087,429.227234 
z"/>
<path fill="#EEEBE6" opacity="1.000000" stroke="none" 
	d="
M327.120789,730.858643 
	C359.049103,730.847473 390.486694,730.847473 422.316040,730.847473 
	C422.316040,733.853088 422.316040,736.576538 422.316040,739.734375 
	C390.086212,739.734375 357.759125,739.734375 323.975647,739.734375 
	C324.910553,736.612122 325.770294,733.740967 327.120789,730.858643 
z"/>
<path fill="#E7E3E0" opacity="1.000000" stroke="none" 
	d="
M352.887817,421.020966 
	C332.118835,421.020966 311.839355,421.020966 291.242554,421.020966 
	C291.242554,417.804382 291.242554,414.902039 291.242554,411.703247 
	C313.367096,411.703247 335.431824,411.703247 357.826233,411.703247 
	C357.826233,414.727722 357.826233,417.610199 357.826233,420.793121 
	C356.287811,420.871887 354.832550,420.946442 352.887817,421.020966 
z"/>
<path fill="#E7E3E0" opacity="1.000000" stroke="none" 
	d="
M335.999939,468.865753 
	C320.872925,468.865723 306.245880,468.865723 291.275452,468.865723 
	C291.275452,465.607025 291.275452,462.702881 291.275452,459.463776 
	C313.317963,459.463776 335.374969,459.463776 357.796051,459.463776 
	C357.796051,462.396332 357.796051,465.293762 357.796051,468.865784 
	C350.711395,468.865784 343.605621,468.865784 335.999939,468.865753 
z"/>
<path fill="#E7E3E0" opacity="1.000000" stroke="none" 
	d="
M312.000153,452.865753 
	C304.867188,452.865723 298.234161,452.865723 291.268341,452.865723 
	C291.268341,449.596802 291.268341,446.695251 291.268341,443.458038 
	C313.332489,443.458038 335.389526,443.458038 357.803284,443.458038 
	C357.803284,446.409698 357.803284,449.310577 357.803284,452.865784 
	C342.695740,452.865784 327.597931,452.865784 312.000153,452.865753 
z"/>
<path fill="#EFECE6" opacity="1.000000" stroke="none" 
	d="
M344.765015,618.939209 
	C345.606812,621.840698 345.973450,624.675903 346.385773,627.864380 
	C327.638702,627.864380 309.613495,627.864380 291.271301,627.864380 
	C291.271301,625.083618 291.271301,622.341919 291.271301,618.872925 
	C308.889862,618.872925 326.589844,618.872925 344.765015,618.939209 
z"/>
<path fill="#E7E3E0" opacity="1.000000" stroke="none" 
	d="
M316.999390,491.134247 
	C323.456970,491.134277 329.414703,491.134277 335.708710,491.134277 
	C335.708710,494.390869 335.708710,497.292389 335.708710,500.532501 
	C321.029236,500.532501 306.325684,500.532501 291.274353,500.532501 
	C291.274353,497.608521 291.274353,494.707367 291.274353,491.134216 
	C299.657928,491.134216 308.078735,491.134216 316.999390,491.134247 
z"/>
<path fill="#EFECE6" opacity="1.000000" stroke="none" 
	d="
M316.999573,644.154175 
	C308.219147,644.154236 299.938660,644.154236 291.305664,644.154236 
	C291.305664,641.166199 291.305664,638.424927 291.305664,635.262085 
	C305.894623,635.262085 320.691101,635.262085 335.757385,635.262085 
	C335.757385,638.014771 335.757385,640.754272 335.757385,644.154175 
	C329.643951,644.154175 323.571747,644.154175 316.999573,644.154175 
z"/>
<path fill="#E6E2E0" opacity="1.000000" stroke="none" 
	d="
M484.641968,751.978149 
	C484.641937,750.085083 484.641937,748.619446 484.641937,746.781616 
	C493.682892,746.781616 502.352264,746.781616 511.401306,746.781616 
	C511.401306,749.685120 511.401306,752.545593 511.401306,755.719238 
	C502.634338,755.719238 493.927612,755.719238 484.983459,755.719238 
	C484.873199,754.649231 484.757599,753.527405 484.641968,751.978149 
z"/>
<path fill="#E6E2E0" opacity="1.000000" stroke="none" 
	d="
M522.084717,714.407715 
	C528.035767,714.407898 533.499512,714.407898 539.326416,714.407898 
	C539.326416,717.715332 539.326416,720.591614 539.326416,723.749573 
	C530.473328,723.749573 521.750122,723.749573 512.775391,723.749573 
	C512.775391,720.786499 512.775391,718.013000 512.775391,714.407532 
	C515.766296,714.407532 518.681885,714.407532 522.084717,714.407715 
z"/>
<path fill="#EBE8E4" opacity="1.000000" stroke="none" 
	d="
M348.906128,344.728210 
	C348.261292,348.085693 347.975983,351.331665 347.665314,354.866516 
	C345.933258,354.866516 344.217072,354.866516 342.160248,354.866516 
	C342.055237,352.999725 341.956329,351.240601 341.859039,349.510742 
	C338.163147,349.319489 338.163147,349.319489 337.868530,354.758179 
	C336.187744,354.758179 334.478027,354.758179 332.757080,354.758179 
	C332.182159,351.074860 331.603363,347.366760 330.825897,342.385895 
	C332.892059,340.447937 336.255768,337.292908 340.048615,333.735413 
	C343.390747,336.866882 346.634583,339.868042 349.790344,342.959076 
	C349.977295,343.142181 349.456909,344.047516 348.906128,344.728210 
z"/>
<path fill="#E6E2E0" opacity="1.000000" stroke="none" 
	d="
M301.046661,548.591125 
	C297.581909,548.590942 294.607483,548.590942 291.282715,548.590942 
	C291.282715,545.334778 291.282715,542.451721 291.282715,539.266724 
	C300.000153,539.266724 308.727386,539.266724 317.714172,539.266724 
	C317.714172,542.188232 317.714172,544.956177 317.714172,548.591309 
	C312.346100,548.591309 306.941528,548.591309 301.046661,548.591125 
z"/>
<path fill="#E7E3E0" opacity="1.000000" stroke="none" 
	d="
M567.867920,538.979126 
	C569.793457,539.058594 571.234070,539.138123 572.837097,539.226562 
	C572.837097,542.299255 572.837097,545.067383 572.837097,548.213013 
	C564.080933,548.213013 555.404968,548.213013 546.351257,548.213013 
	C546.351257,545.391541 546.351257,542.517395 546.351257,538.979065 
	C553.270020,538.979065 560.326477,538.979065 567.867920,538.979126 
z"/>
<path fill="#E7E3E0" opacity="1.000000" stroke="none" 
	d="
M546.158203,683.461670 
	C554.998779,683.028381 563.705261,683.028381 572.718140,683.028381 
	C572.718140,685.715149 572.718140,688.593506 572.718140,691.750854 
	C563.947083,691.750854 555.250671,691.750854 546.024048,691.750854 
	C546.024048,689.083618 546.024048,686.489258 546.158203,683.461670 
z"/>
<path fill="#E6E2E0" opacity="1.000000" stroke="none" 
	d="
M311.887939,724.021851 
	C304.769806,724.021851 298.136292,724.021851 291.218262,724.021851 
	C291.218262,720.754578 291.218262,717.855408 291.218262,714.715698 
	C300.122192,714.715698 308.867371,714.715698 317.794373,714.715698 
	C317.794373,717.807861 317.794373,720.593445 317.794373,724.021851 
	C315.910095,724.021851 314.141296,724.021851 311.887939,724.021851 
z"/>
<path fill="#E6E2E0" opacity="1.000000" stroke="none" 
	d="
M304.995972,692.021851 
	C300.191895,692.021851 295.884796,692.021851 291.253082,692.021851 
	C291.253082,688.822510 291.253082,685.917725 291.253082,682.708740 
	C300.020538,682.708740 308.762207,682.708740 317.738403,682.708740 
	C317.738403,685.735962 317.738403,688.514221 317.738403,692.021851 
	C313.674316,692.021851 309.583618,692.021851 304.995972,692.021851 
z"/>
<path fill="#E6E2E0" opacity="1.000000" stroke="none" 
	d="
M313.814484,570.978394 
	C316.996094,570.589783 318.357788,571.492859 318.009674,574.479614 
	C317.800507,576.274109 317.971222,578.112854 317.971222,580.260986 
	C308.914551,580.260986 300.172821,580.260986 291.175812,580.260986 
	C291.175812,577.303528 291.175812,574.520386 291.175812,570.978210 
	C298.490784,570.978210 305.913635,570.978210 313.814484,570.978394 
z"/>
<path fill="#E6E2E0" opacity="1.000000" stroke="none" 
	d="
M296.218109,507.408936 
	C303.653900,507.409088 310.613464,507.409088 317.765045,507.409088 
	C317.765045,510.774933 317.765045,513.557129 317.765045,516.681396 
	C308.980164,516.681396 300.251862,516.681396 291.223572,516.681396 
	C291.223572,513.764404 291.223572,510.865997 291.223572,507.652985 
	C292.810791,507.567200 294.276337,507.487976 296.218109,507.408936 
z"/>
<path fill="#E6E2E0" opacity="1.000000" stroke="none" 
	d="
M299.093994,395.408875 
	C305.542511,395.409058 311.506042,395.409058 317.719238,395.409058 
	C317.719238,398.701355 317.719238,401.478790 317.719238,404.640533 
	C309.083862,404.640533 300.354187,404.640533 291.274719,404.640533 
	C291.274719,401.856750 291.274719,398.957184 291.274719,395.408722 
	C293.710938,395.408722 296.159973,395.408722 299.093994,395.408875 
z"/>
<path fill="#E6E2E0" opacity="1.000000" stroke="none" 
	d="
M313.814484,650.978394 
	C316.996674,650.589539 318.357788,651.493530 318.009644,654.480103 
	C317.800476,656.274719 317.971222,658.113586 317.971222,660.261475 
	C308.913300,660.261475 300.170654,660.261475 291.173462,660.261475 
	C291.173462,657.300354 291.173462,654.516113 291.173462,650.978210 
	C298.489288,650.978210 305.912903,650.978210 313.814484,650.978394 
z"/>
<path fill="#E6E2E0" opacity="1.000000" stroke="none" 
	d="
M311.887848,756.021851 
	C304.769714,756.021851 298.136169,756.021851 291.218201,756.021851 
	C291.218201,752.754456 291.218201,749.855286 291.218201,746.715332 
	C300.122589,746.715332 308.867950,746.715332 317.795013,746.715332 
	C317.795013,749.807129 317.795013,752.592651 317.795013,756.021851 
	C315.909851,756.021851 314.141113,756.021851 311.887848,756.021851 
z"/>
<path fill="#E6E2E0" opacity="1.000000" stroke="none" 
	d="
M291.542603,484.431763 
	C291.185181,481.348938 291.185181,478.561920 291.185181,475.454163 
	C299.964050,475.454163 308.652924,475.454163 317.658783,475.454163 
	C317.658783,478.450806 317.658783,481.339600 317.658783,484.727570 
	C309.022888,484.727570 300.461456,484.727570 291.542603,484.431763 
z"/>
<path fill="#E6E2E0" opacity="1.000000" stroke="none" 
	d="
M308.953583,522.978149 
	C312.083160,522.978149 314.719910,522.978149 317.662354,522.978149 
	C317.662354,526.221619 317.662354,529.117065 317.662354,532.301147 
	C308.799591,532.301147 300.058136,532.301147 291.122314,532.301147 
	C291.122314,529.221375 291.122314,526.430420 291.122314,522.978149 
	C296.925140,522.978149 302.692963,522.978149 308.953583,522.978149 
z"/>
<path fill="#EEEBE6" opacity="1.000000" stroke="none" 
	d="
M317.933868,669.154968 
	C317.942871,671.590393 317.942871,673.555786 317.942871,675.836975 
	C308.871368,675.836975 300.165527,675.836975 291.202759,675.836975 
	C291.202759,672.946960 291.202759,670.203003 291.202759,666.875122 
	C299.564941,666.875122 307.824341,666.836121 316.081543,666.953186 
	C316.704041,666.961975 317.310791,668.081604 317.933868,669.154968 
z"/>
<path fill="#EEEBE6" opacity="1.000000" stroke="none" 
	d="
M297.083588,730.843018 
	C304.187378,730.842957 310.802399,730.842957 317.682190,730.842957 
	C317.682190,734.028687 317.682190,736.769653 317.682190,739.836304 
	C308.887054,739.836304 300.182770,739.836304 291.214600,739.836304 
	C291.214600,736.963440 291.214600,734.220032 291.214600,730.843018 
	C293.065369,730.843018 294.830109,730.843018 297.083588,730.843018 
z"/>
<path fill="#EEEBE6" opacity="1.000000" stroke="none" 
	d="
M455.575317,739.656982 
	C446.763367,739.996033 438.291870,739.996033 429.442108,739.996033 
	C429.442108,737.200500 429.442108,734.460266 429.442108,730.843018 
	C433.598053,730.843018 437.999664,730.843018 442.401245,730.843018 
	C446.711548,730.843018 451.021851,730.843018 455.915802,730.843018 
	C455.915802,733.821228 455.915802,736.569580 455.575317,739.656982 
z"/>
<path fill="#E6E2E0" opacity="1.000000" stroke="none" 
	d="
M905.244263,349.428467 
	C903.072754,342.803619 904.272034,337.213531 909.579041,335.595093 
	C914.153503,334.199982 919.490540,335.305573 924.676270,335.305573 
	C924.676270,338.937439 924.676270,341.522400 924.676270,344.628235 
	C921.819885,343.718048 919.337585,342.927063 916.559265,342.041748 
	C917.011841,341.021210 917.362000,340.231781 917.785095,339.277771 
	C914.711792,337.382507 911.526733,338.070068 910.075500,340.761719 
	C908.992188,342.770966 909.077393,346.296021 910.146118,348.371857 
	C911.743225,351.473816 915.330627,351.492645 917.997009,349.608246 
	C920.415527,347.899017 921.918823,347.453217 923.366272,350.317413 
	C918.098083,356.991547 911.282654,356.741669 905.244263,349.428467 
z"/>
<path fill="#EBE8E4" opacity="1.000000" stroke="none" 
	d="
M287.457581,339.828064 
	C289.513489,339.831207 291.151337,339.831207 293.160278,339.831207 
	C293.160278,343.355194 293.160278,346.549103 293.160278,349.482391 
	C290.510498,351.732117 285.218079,347.276520 284.529785,354.262482 
	C280.844330,351.073700 277.549866,348.223206 273.833496,345.007660 
	C277.338074,341.955627 280.529633,339.176178 283.558533,336.538422 
	C284.869934,337.776550 285.954681,338.800751 287.457581,339.828064 
z"/>
<path fill="#EBE8E4" opacity="1.000000" stroke="none" 
	d="
M316.822205,340.094086 
	C318.795288,341.834961 320.482880,343.351135 322.498901,345.162384 
	C319.003784,348.141602 315.891968,350.794067 312.431732,353.743561 
	C311.348541,347.719147 306.474518,351.243134 303.241394,349.693085 
	C303.241394,346.737946 303.241394,343.657349 303.241394,340.675873 
	C306.464569,339.823181 309.681763,338.972076 312.898956,338.120941 
	C312.873322,337.655792 312.847687,337.190613 312.822052,336.725433 
	C314.060272,337.773438 315.298523,338.821411 316.822205,340.094086 
z"/>
<path fill="#E3DEDE" opacity="1.000000" stroke="none" 
	d="
M280.866425,452.880280 
	C272.249390,453.060516 277.953400,446.856049 275.417053,443.564453 
	C278.858551,443.564453 281.376373,443.564453 284.678986,443.564453 
	C282.741669,446.558167 288.165924,451.428986 280.866425,452.880280 
z"/>
<path fill="#E3DEDE" opacity="1.000000" stroke="none" 
	d="
M284.516602,478.279785 
	C284.517944,480.649323 284.517944,482.587463 284.517944,484.700867 
	C281.574463,484.700867 279.288635,484.700867 276.561157,484.700867 
	C276.561157,481.651947 276.561157,478.661926 276.561157,475.143768 
	C279.290253,476.403290 283.252777,472.294647 284.516602,478.279785 
z"/>
<path fill="#E3DEDE" opacity="1.000000" stroke="none" 
	d="
M283.441315,507.304077 
	C284.126068,510.327209 284.405243,513.218323 284.723175,516.510376 
	C281.741669,516.510376 279.358978,516.510376 276.539246,516.510376 
	C276.539246,513.755005 276.539246,510.873962 276.539246,507.172058 
	C278.586060,507.172058 280.810913,507.172058 283.441315,507.304077 
z"/>
<path fill="#E3DEDE" opacity="1.000000" stroke="none" 
	d="
M279.128113,491.123352 
	C281.021484,491.120178 282.475555,491.120178 284.222198,491.120178 
	C284.222198,494.450562 284.222198,497.350708 284.222198,500.567200 
	C281.652618,500.567200 279.262329,500.567200 276.163177,500.567200 
	C277.311066,497.366302 273.486969,493.372345 279.128113,491.123352 
z"/>
<path fill="#E3DEDE" opacity="1.000000" stroke="none" 
	d="
M284.403381,460.585205 
	C284.482056,463.455231 284.482056,465.905090 284.482056,468.610046 
	C281.583618,468.610046 279.189026,468.610046 276.456909,468.610046 
	C276.456909,465.582458 276.456909,462.701141 276.456909,458.828949 
	C279.212433,459.296875 281.768585,459.730957 284.403381,460.585205 
z"/>
<path fill="#E3DEDE" opacity="1.000000" stroke="none" 
	d="
M276.123474,417.874939 
	C276.121735,415.644623 276.121735,413.865082 276.121735,411.737976 
	C278.891693,411.737976 281.282196,411.737976 284.096863,411.737976 
	C284.096863,414.692352 284.096863,417.684265 284.096863,421.173828 
	C281.393494,419.689148 277.296722,423.836975 276.123474,417.874939 
z"/>
<path fill="#E3DEDE" opacity="1.000000" stroke="none" 
	d="
M282.479248,427.431061 
	C283.605804,430.364380 284.314850,433.268158 285.138000,436.639099 
	C281.544617,436.639099 279.153351,436.639099 276.441101,436.639099 
	C276.441101,433.702911 276.441101,430.969360 276.441101,427.401520 
	C278.269897,427.401520 280.165833,427.401520 282.479248,427.431061 
z"/>
<path fill="#E3DEDE" opacity="1.000000" stroke="none" 
	d="
M277.467712,714.543335 
	C279.834778,714.440369 281.789337,714.440369 284.128418,714.440369 
	C284.128418,717.612183 284.128418,720.474182 284.128418,723.692261 
	C281.640656,723.692261 279.139648,723.692261 275.783051,723.692261 
	C276.229462,720.517761 276.642334,717.582031 277.467712,714.543335 
z"/>
<path fill="#E3DEDE" opacity="1.000000" stroke="none" 
	d="
M279.132141,746.393066 
	C281.000916,746.465271 282.445496,746.541382 284.194305,746.633484 
	C284.194305,749.772034 284.194305,752.644226 284.194305,755.776367 
	C281.636902,755.776367 279.235474,755.776367 276.107666,755.776367 
	C277.366302,752.620605 273.439148,748.583496 279.132141,746.393066 
z"/>
<path fill="#E3DEDE" opacity="1.000000" stroke="none" 
	d="
M279.981384,740.031860 
	C278.397461,739.121460 276.590637,738.397888 276.273773,737.259583 
	C275.732208,735.314087 276.124420,733.108643 276.124420,730.702759 
	C278.976807,730.702759 281.365875,730.702759 283.737762,730.702759 
	C285.658600,738.018921 285.063812,739.671631 279.981384,740.031860 
z"/>
<path fill="#E3DEDE" opacity="1.000000" stroke="none" 
	d="
M276.121552,560.792969 
	C276.121063,558.746704 276.121063,557.140808 276.121063,555.254150 
	C278.954834,555.254150 281.352234,555.254150 284.134735,555.254150 
	C284.134735,558.058899 284.134735,560.910400 284.134735,564.375305 
	C281.260101,563.568604 277.028076,567.655334 276.121552,560.792969 
z"/>
<path fill="#E3DEDE" opacity="1.000000" stroke="none" 
	d="
M278.194824,708.011719 
	C276.992401,705.116638 276.239594,702.236938 275.331207,698.762085 
	C278.950531,698.762085 281.453979,698.762085 284.238464,698.762085 
	C284.238464,701.882385 284.238464,704.755188 284.238464,708.027100 
	C282.196625,708.027100 280.420563,708.027100 278.194824,708.011719 
z"/>
<path fill="#E3DEDE" opacity="1.000000" stroke="none" 
	d="
M276.123474,688.874939 
	C276.121735,686.641907 276.121735,684.859619 276.121735,682.737976 
	C278.891724,682.737976 281.282227,682.737976 284.096863,682.737976 
	C284.096863,685.692444 284.096863,688.684753 284.096863,692.173706 
	C281.393463,690.689209 277.296814,694.836914 276.123474,688.874939 
z"/>
<path fill="#E3DEDE" opacity="1.000000" stroke="none" 
	d="
M284.509766,400.121979 
	C284.507263,401.839935 284.507263,403.130463 284.507263,404.725098 
	C281.591095,404.725098 279.086823,404.725098 276.350769,404.725098 
	C276.350769,401.735901 276.350769,398.990265 276.350769,396.251495 
	C282.837860,394.294708 284.122253,394.839935 284.509766,400.121979 
z"/>
<path fill="#E3DEDE" opacity="1.000000" stroke="none" 
	d="
M284.434326,524.443481 
	C284.490723,527.157043 284.490723,529.443237 284.490723,532.169678 
	C281.692627,532.169678 279.201813,532.169678 276.410492,532.169678 
	C276.410492,529.214600 276.410492,526.357300 276.410492,522.626953 
	C279.266266,523.124878 281.822083,523.570557 284.434326,524.443481 
z"/>
<path fill="#E3DEDE" opacity="1.000000" stroke="none" 
	d="
M278.194794,538.988281 
	C280.421906,538.973022 282.200623,538.973022 284.235443,538.973022 
	C284.235443,542.230408 284.235443,545.103333 284.235443,548.293823 
	C281.584747,548.293823 279.210175,548.293823 275.538727,548.293823 
	C276.329315,544.966858 277.037872,541.985229 278.194794,538.988281 
z"/>
<path fill="#E3DEDE" opacity="1.000000" stroke="none" 
	d="
M276.135956,589.231567 
	C278.615540,587.936768 281.084229,587.090454 284.189636,586.025818 
	C284.189636,590.114380 284.189636,592.981079 284.189636,596.232544 
	C281.573181,596.232544 279.078125,596.232544 276.125092,596.232544 
	C276.125092,593.876465 276.125092,591.778259 276.135956,589.231567 
z"/>
<path fill="#E3DEDE" opacity="1.000000" stroke="none" 
	d="
M281.752686,570.970825 
	C287.265961,573.160217 283.275238,577.036621 284.467224,580.333618 
	C281.507050,580.333618 279.127625,580.333618 276.433899,580.333618 
	C276.433899,577.261108 276.433899,574.406616 276.433899,571.204346 
	C278.129242,571.122375 279.720978,571.045349 281.752686,570.970825 
z"/>
<path fill="#EBE8E4" opacity="1.000000" stroke="none" 
	d="
M276.167480,669.224487 
	C278.619598,667.873474 281.062225,666.979675 284.164734,665.844482 
	C284.164734,669.944580 284.164734,672.689148 284.164734,675.804504 
	C281.714081,675.804504 279.323944,675.804504 276.157959,675.804504 
	C276.157959,673.824036 276.157959,671.752869 276.167480,669.224487 
z"/>
<path fill="#EBE8E4" opacity="1.000000" stroke="none" 
	d="
M284.450897,653.312134 
	C284.459290,655.713379 284.459290,657.675842 284.459290,659.900879 
	C281.577423,659.900879 279.168457,659.900879 276.456360,659.900879 
	C276.456360,657.021118 276.456360,654.287109 276.456360,650.006226 
	C279.438690,651.076904 281.940613,651.975098 284.450897,653.312134 
z"/>
<path fill="#EBE8E4" opacity="1.000000" stroke="none" 
	d="
M283.492218,643.940308 
	C280.962189,644.101990 278.841309,644.101990 276.439636,644.101990 
	C276.439636,640.981018 276.439636,638.246399 276.439636,635.169556 
	C278.946167,635.169556 281.347595,635.169556 284.496857,635.169556 
	C284.297485,638.051880 284.099396,640.915283 283.492218,643.940308 
z"/>
<path fill="#EBE8E4" opacity="1.000000" stroke="none" 
	d="
M284.458801,622.183594 
	C284.457916,624.257446 284.457916,625.892700 284.457916,627.846069 
	C281.645050,627.846069 279.241486,627.846069 276.494446,627.846069 
	C276.494446,625.120789 276.494446,622.386780 276.494446,619.054871 
	C279.178223,620.126831 283.206970,615.647705 284.458801,622.183594 
z"/>
<path fill="#EBE8E4" opacity="1.000000" stroke="none" 
	d="
M284.453247,607.928101 
	C284.433655,615.557861 279.382568,610.822083 276.416626,612.265442 
	C276.416626,608.915710 276.416626,606.181519 276.416626,603.138794 
	C279.009735,603.138794 281.417908,603.138794 284.214600,603.138794 
	C284.296051,604.605408 284.376160,606.047180 284.453247,607.928101 
z"/>
<path fill="#ECE9E4" opacity="1.000000" stroke="none" 
	d="
M817.715210,893.938232 
	C823.996277,886.818787 832.856018,885.034485 840.424561,889.099304 
	C847.275452,892.778687 850.263123,901.345032 847.722229,910.023499 
	C845.769043,916.694519 839.412292,921.004700 831.615295,920.944946 
	C823.624878,920.883667 817.729858,916.705750 815.863892,909.706604 
	C814.438232,904.359009 814.815857,899.174805 817.715210,893.938232 
z"/>
<path fill="#EEEBE5" opacity="1.000000" stroke="none" 
	d="
M301.531067,864.057251 
	C307.317993,867.845398 309.163452,872.504700 307.477661,878.226257 
	C305.983826,883.296326 302.068481,885.888672 295.512268,885.975342 
	C290.690125,886.039124 285.865875,885.955627 281.042847,885.907715 
	C280.757111,885.904907 280.474060,885.634216 279.997070,885.389160 
	C279.997070,878.210388 279.997070,870.940918 279.997070,862.651245 
	C287.076996,863.080566 294.112396,863.507202 301.531067,864.057251 
z"/>
<path fill="#EBE8E4" opacity="1.000000" stroke="none" 
	d="
M451.190918,919.581787 
	C443.986816,921.971252 437.634644,921.485779 432.657501,915.709045 
	C428.401581,910.769287 427.845978,900.557190 431.184265,894.433777 
	C434.109711,889.067566 440.301270,886.209229 446.886597,887.184448 
	C453.092041,888.103394 457.608826,892.175903 459.024414,898.128357 
	C461.296661,907.683044 458.780029,914.829102 451.190918,919.581787 
z"/>
<path fill="#EBE8E4" opacity="1.000000" stroke="none" 
	d="
M923.173584,891.228882 
	C924.832642,893.793640 923.497620,894.015442 921.674438,894.010986 
	C913.078674,893.989990 904.482971,894.001648 895.766785,894.001648 
	C899.582031,884.596619 914.122498,883.091919 923.173584,891.228882 
z"/>
<path fill="#ECE9E4" opacity="1.000000" stroke="none" 
	d="
M770.413086,912.074951 
	C764.770996,920.912415 754.401306,923.507996 746.003540,918.461060 
	C738.932617,914.211548 736.274109,903.273987 740.414307,895.466064 
	C744.536804,887.691528 754.798218,884.776245 763.372314,888.943604 
	C771.190735,892.743652 773.875427,901.188171 770.413086,912.074951 
z"/>
<path fill="#473073" opacity="1.000000" stroke="none" 
	d="
M906.359558,549.000122 
	C906.359680,562.476074 906.359680,575.451965 906.359680,588.746887 
	C845.267090,588.746887 784.518494,588.746887 723.421143,588.746887 
	C723.421143,553.737915 723.421143,518.679565 723.421143,483.294128 
	C784.144287,483.294128 844.873413,483.294128 906.359436,483.294128 
	C906.359436,505.018494 906.359436,526.759277 906.359558,549.000122 
z"/>
<path fill="#4A3375" opacity="1.000000" stroke="none" 
	d="
M806.999878,448.652832 
	C778.879028,448.652710 751.258179,448.652710 723.351440,448.652710 
	C723.351440,430.797119 723.351440,413.398773 723.351440,395.718719 
	C784.236755,395.718719 844.994934,395.718719 906.105225,395.718719 
	C906.105225,413.075256 906.105225,430.481537 906.105225,448.652985 
	C873.298401,448.652985 840.399170,448.652985 806.999878,448.652832 
z"/>
<path fill="#4B3476" opacity="1.000000" stroke="none" 
	d="
M831.000122,694.343262 
	C856.291260,694.343323 881.082397,694.343323 906.166748,694.343323 
	C906.166748,701.103271 906.166748,707.499207 906.166748,714.131897 
	C845.253296,714.131897 784.514709,714.131897 723.418213,714.131897 
	C723.418213,707.664856 723.418213,701.272461 723.418213,694.343140 
	C759.005737,694.343140 794.752869,694.343140 831.000122,694.343262 
z"/>
<path fill="#483174" opacity="1.000000" stroke="none" 
	d="
M875.000000,755.930542 
	C824.220154,755.930542 773.940308,755.930542 723.365295,755.930542 
	C723.365295,749.237000 723.365295,742.850464 723.365295,736.213623 
	C784.283508,736.213623 845.008911,736.213623 906.049194,736.213623 
	C906.049194,742.752991 906.049194,749.129333 906.049194,755.930542 
	C895.744080,755.930542 885.622070,755.930542 875.000000,755.930542 
z"/>
<path fill="#493274" opacity="1.000000" stroke="none" 
	d="
M776.000000,652.926147 
	C819.612244,652.926086 862.724426,652.926086 906.100464,652.926086 
	C906.100464,659.696899 906.100464,665.968506 906.100464,672.608154 
	C845.276855,672.608154 784.423279,672.608154 723.318420,672.608154 
	C723.318420,666.264282 723.318420,659.996216 723.318420,652.926147 
	C740.689270,652.926147 758.094666,652.926147 776.000000,652.926147 
z"/>
<path fill="#4A3375" opacity="1.000000" stroke="none" 
	d="
M773.000000,611.210754 
	C787.106323,611.210815 800.712585,611.210815 814.605469,611.210815 
	C814.605469,617.907654 814.605469,624.285889 814.605469,630.947754 
	C784.202820,630.947754 754.000000,630.947754 723.429688,630.947754 
	C723.429688,624.595398 723.429688,618.199280 723.429688,611.210693 
	C739.705750,611.210693 756.102905,611.210693 773.000000,611.210754 
z"/>
<path fill="#4D3777" opacity="1.000000" stroke="none" 
	d="
M924.630127,295.757385 
	C922.581604,301.130737 919.091187,302.888733 915.152893,300.862274 
	C912.056519,299.269043 910.575378,294.756500 912.895386,291.981689 
	C914.241821,290.371277 916.944824,289.159332 919.073914,289.101013 
	C922.843079,288.997772 924.308838,291.943207 924.630127,295.757385 
z"/>
<path fill="#4D3777" opacity="1.000000" stroke="none" 
	d="
M893.175232,292.128662 
	C895.675720,288.676697 898.968079,287.682373 901.940735,289.885559 
	C903.654785,291.155914 905.129150,294.424957 904.732971,296.396881 
	C904.335449,298.375366 901.741455,300.783264 899.649475,301.375275 
	C894.798950,302.748077 891.744873,298.354340 893.175232,292.128662 
z"/>
<path fill="#4D3777" opacity="1.000000" stroke="none" 
	d="
M878.345459,301.518585 
	C873.861145,300.314484 872.327271,297.481873 873.265137,293.532593 
	C874.120178,289.932281 876.822510,288.493958 880.414673,288.981506 
	C883.899963,289.454590 885.822510,291.848755 885.765564,295.101440 
	C885.690796,299.375214 883.090881,301.649902 878.345459,301.518585 
z"/>
</svg>